<?xml version="1.0" encoding="utf-8"?>
<!-- Generator: Adobe Illustrator 21.1.0, SVG Export Plug-In . SVG Version: 6.00 Build 0)  -->
<svg version="1.1" id="Layer_1" xmlns="http://www.w3.org/2000/svg" xmlns:xlink="http://www.w3.org/1999/xlink" x="0px" y="0px"
	 viewBox="0 0 100 100" style="enable-background:new 0 0 100 100;" xml:space="preserve">
<style type="text/css">
	.st0{opacity:0.25;}
</style>
<circle class="st0" cx="50.21" cy="50" r="50"/>
<path d="M100.21,50c0,27.61-22.39,50-50,50s-50-22.39-50-50s22.39-50,50-50S100.21,22.39,100.21,50z M50.21,5.03
	C25.38,5.03,5.25,25.16,5.25,50s20.13,44.97,44.97,44.97S95.18,74.84,95.18,50S75.05,5.03,50.21,5.03z"/>
<g>
	<rect x="28.75" y="44.76" transform="matrix(0.7071 -0.7071 0.7071 0.7071 -21.636 49.7411)" width="40.94" height="12.45"/>
	<polygon points="35.9,73.12 23.14,77.97 22.25,77.07 27.1,64.31 	"/>
	<path d="M77.13,31.89l-5.77,5.77l-8.8-8.8l5.77-5.77c1.4-1.4,3.68-1.4,5.08,0l3.73,3.73C78.53,28.21,78.53,30.49,77.13,31.89z"/>
</g>
</svg>
